<svg width="0" height="0" class="hidden">
  <symbol xmlns="http://www.w3.org/2000/svg" viewBox="0 0 40 41" id="rocket">
    <path d="M1.032 33.676l-.222-.001a.83.83 0 01-.81-.848c.014-.456.384-.782.857-.802.277-.003 28.583.495 35.003-24.126a.834.834 0 011.613.413C31.03 33.028 3.78 33.676 1.032 33.676z"></path>
    <path d="M39.168 13.21a.834.834 0 01-.723-.412L36.36 9.226l-3.608 2.063a.84.84 0 01-1.138-.302.82.82 0 01.305-1.127l4.33-2.475a.836.836 0 011.138.302l2.5 4.286a.82.82 0 01-.305 1.127.82.82 0 01-.415.11zm-3.333 27.06a.83.83 0 01-.834-.824V18a.83.83 0 01.834-.825c.46 0 .833.37.833.825v21.445a.83.83 0 01-.833.825zm-10 .004a.83.83 0 01-.834-.825v-9.898a.83.83 0 01.834-.824c.46 0 .833.37.833.824v9.898a.83.83 0 01-.833.825zm-10.001.001a.83.83 0 01-.833-.825V34.5a.83.83 0 01.833-.824c.46 0 .834.37.834.825v4.95a.83.83 0 01-.834.824zm-10-.007A.829.829 0 015 39.444v-2.472a.83.83 0 01.834-.824c.46 0 .833.37.833.824v2.472a.829.829 0 01-.833.824zm6.263-20.06a.842.842 0 01-.59-.24l-5.993-5.935a.819.819 0 01-.03-1.134l4.91-5.396C13.883 3.515 19.416.767 24.153.68c.197-.027.445.084.605.24.16.16.247.377.243.6-.088 4.688-2.865 10.164-6.907 13.627l-5.44 4.85a.826.826 0 01-.557.211zm-4.845-6.787l4.877 4.827 4.864-4.337c3.46-2.964 5.903-7.492 6.29-11.53-4.08.382-8.654 2.8-11.639 6.214L7.252 13.42z"></path>
    <path d="M14.34 24.122a.833.833 0 01-.812-.633l-1.177-4.867a.827.827 0 01.616-.995.835.835 0 011.005.61l.782 3.233c1.449-2.242 1.737-5.111 1.767-6.789.008-.455.405-.812.848-.81.46.007.827.384.819.838-.07 3.903-1.227 7.16-3.259 9.17a.84.84 0 01-.588.243zM7.069 13.224a.787.787 0 01-.195-.023l-4.917-1.166a.822.822 0 01-.397-1.384c2.032-2.012 5.322-3.157 9.267-3.226.462-.041.84.355.847.81a.83.83 0 01-.818.84c-1.697.03-4.594.315-6.859 1.749l3.265.773a.826.826 0 01.617.995.834.834 0 01-.81.632zM.834 25.425a.848.848 0 01-.59-.24.818.818 0 01-.209-.82c.275-.911 1.705-5.507 2.825-6.616a3.49 3.49 0 014.897 0 3.406 3.406 0 010 4.847c-1.118 1.108-5.763 2.522-6.683 2.794a.861.861 0 01-.24.035zm4.475-7.03a1.8 1.8 0 00-1.27.52c-.474.469-1.287 2.534-1.924 4.417 1.902-.63 3.99-1.436 4.462-1.903.7-.692.7-1.82 0-2.512a1.794 1.794 0 00-1.268-.521z"></path>
  </symbol>
  <symbol xmlns="http://www.w3.org/2000/svg" viewBox="0 0 40 40" id="device">
    <g clip-path="url(#clip0)">
      <path d="M24.667 33.235h-1.9v-3.8h7.8v5.9c0 1.16.94 2.1 2.1 2.1H38a2.1 2.1 0 002.1-2.1V22a2.1 2.1 0 00-2.1-2.1h-.567V6A3.437 3.437 0 0034 2.568H6a3.437 3.437 0 00-3.433 3.433v9.9H2a2.1 2.1 0 00-2.1 2.1v17.334c0 1.16.94 2.1 2.1 2.1h25.333a.767.767 0 00.767-.767 3.437 3.437 0 00-3.433-3.433zm-8.567 2.1v-.567h8.566c.757 0 1.437.45 1.74 1.133h-10.39c.054-.183.082-.374.084-.565v-.001zM4.1 15.9V6c0-1.05.85-1.9 1.9-1.9h28A1.9 1.9 0 0135.9 6v13.9h-3.233a2.1 2.1 0 00-2.1 2.1v.567H16.1V18a2.077 2.077 0 00-.203-.88l2.08-2.08c.428-.413.884-.86 1.334-1.306a263.655 263.655 0 002.96-2.984l.175-.178.023-.024.006-.006.002-.002.007-.008.002-.002c.007-.008-.011-.144-.141-.14l-.004.003-.004.004-.01.01-4.49 4.49c-.368.354-.715.683-1.02.964-.332.304-.612.55-.817.711a2.228 2.228 0 01-.274.188c-.148-.16-.174-.286-.188-.352v-.007c-.004-.015-.01-.041-.02-.062a.114.114 0 00-.139-.063.16.16 0 00-.044.023.402.402 0 00-.054.045l-.388-.243a.096.096 0 00-.019-.012l-.052-.033-.011.012A2.075 2.075 0 0014 15.9H4.1zm10.83.3zm.77.57h.002-.003zm6.782-6.236c.001 0 0 0 0 0zm-7.915 24.8A.567.567 0 0114 35.9H2a.567.567 0 01-.567-.566v-.567h13.134v.567zm0-2.1H1.433V18c0-.313.254-.566.567-.566h12c.313 0 .567.253.567.566v15.234zm1.533 0v-3.8h1.133v3.8H16.1zm2.667 0v-3.8h2.466v3.8h-2.466zm11.8-5.334H16.1v-3.8h14.467v3.8zm8 7.434A.567.567 0 0138 35.9h-5.333a.567.567 0 01-.567-.566v-.567h6.467v.567zm0-2.1H32.1V22c0-.313.254-.566.567-.566H38c.313 0 .567.253.567.566v11.234z"></path>
      <path d="M20.013 25.332h-.007a.667.667 0 00.007 1.333.667.667 0 000-1.333zm1.32-20h-2.666a.667.667 0 000 1.333h2.666a.667.667 0 000-1.333z"></path>
    </g>
    <defs>
      <clipPath id="clip0">
        <path fill="#fff" d="M0 0h40v40H0z"></path>
      </clipPath>
    </defs>
  </symbol>
  <symbol xmlns="http://www.w3.org/2000/svg" viewBox="0 0 42 41" id="diagram">
    <path d="M34.242.626c-3.091 0-5.52 2.922-5.52 6.544 0 3.623 2.467 6.5 5.52 6.5 3.054 0 5.56-2.921 5.56-6.544 0-3.623-2.469-6.5-5.56-6.5zm0 11.521c-2.342 0-4.251-2.238-4.251-5.021 0-2.782 1.946-4.977 4.251-4.977 2.343 0 4.252 2.239 4.252 5.021 0 2.783-1.909 4.977-4.252 4.977z"></path>
    <mask id="a" maskUnits="userSpaceOnUse" x="31.469" y="1.945" width="5" height="10" fill="#000">
      <path fill="#fff" d="M31.469 1.945h5v10h-5z"></path>
      <path d="M35.978 8.15c-.038-.134-.038-.222-.113-.356-.038-.089-.076-.222-.151-.311-.076-.09-.113-.178-.189-.267-.075-.09-.15-.178-.264-.223-.076-.089-.189-.133-.264-.178-.113-.044-.189-.133-.302-.178a2.371 2.371 0 01-.302-.133c-.038 0-.113-.044-.15-.089-.038-.044-.114-.044-.152-.089-.038-.044-.113-.044-.15-.089l-.114-.133c-.038-.045-.075-.09-.075-.178-.038-.045-.038-.134-.038-.178v-.223c0-.044.038-.133.038-.178.037-.044.037-.133.075-.177l.113-.134a.267.267 0 01.189-.089c.076-.044.113-.044.189-.044h.226a.3.3 0 01.189.044c.075 0 .15.045.188.045.038 0 .114.044.151.044.076 0 .113.045.151.045l.189.089.038-.267.075-.712v-.178l-.15-.045c-.039 0-.114-.044-.152-.044-.038 0-.075-.045-.15-.045-.038 0-.114-.044-.19-.044-.075 0-.113-.044-.188-.044h-.038v-.846h-.905v.89h-.038a1.237 1.237 0 00-.34.178c-.113.044-.188.133-.264.222-.075.09-.15.178-.226.312-.076.089-.113.222-.151.356l-.113.4c-.038.133-.038.311-.038.445 0 .133 0 .222.038.356.037.133.037.222.113.356.038.089.113.222.15.31.076.09.114.179.19.268.075.089.15.178.264.222.075.09.188.134.264.178.113.045.226.134.302.178.113.045.226.09.302.134.037 0 .113.044.15.089.038.044.114.044.151.089.038.044.076.088.114.088l.113.134c.037.044.037.089.075.178 0 .044.038.133.038.222v.223a.363.363 0 01-.076.178l-.113.133a.517.517 0 01-.15.134c-.038.044-.114.044-.152.089-.037 0-.113.044-.188.044h-.491c-.075 0-.15-.044-.189-.044-.075 0-.15-.045-.226-.09-.075-.044-.15-.044-.226-.088-.038 0-.076-.045-.113-.045-.038 0-.076-.044-.114-.044l-.226-.134-.038.312-.075.8v.134l.113.044c.15-.044.226 0 .34.045a.621.621 0 00.264.089c.075.044.188.044.301.089a.713.713 0 00.302.044h.076v.89h.905v-.934h.038c.113-.045.227-.09.34-.178.113-.045.188-.134.302-.223.075-.089.15-.178.226-.311.075-.09.113-.223.189-.356l.113-.4c.038-.134.038-.267.038-.445 0-.134 0-.223-.038-.356z"></path>
    </mask>
    <path d="M35.978 8.15c-.038-.134-.038-.222-.113-.356-.038-.089-.076-.222-.151-.311-.076-.09-.113-.178-.189-.267-.075-.09-.15-.178-.264-.223-.076-.089-.189-.133-.264-.178-.113-.044-.189-.133-.302-.178a2.371 2.371 0 01-.302-.133c-.038 0-.113-.044-.15-.089-.038-.044-.114-.044-.152-.089-.038-.044-.113-.044-.15-.089l-.114-.133c-.038-.045-.075-.09-.075-.178-.038-.045-.038-.134-.038-.178v-.223c0-.044.038-.133.038-.178.037-.044.037-.133.075-.177l.113-.134a.267.267 0 01.189-.089c.076-.044.113-.044.189-.044h.226a.3.3 0 01.189.044c.075 0 .15.045.188.045.038 0 .114.044.151.044.076 0 .113.045.151.045l.189.089.038-.267.075-.712v-.178l-.15-.045c-.039 0-.114-.044-.152-.044-.038 0-.075-.045-.15-.045-.038 0-.114-.044-.19-.044-.075 0-.113-.044-.188-.044h-.038v-.846h-.905v.89h-.038a1.237 1.237 0 00-.34.178c-.113.044-.188.133-.264.222-.075.09-.15.178-.226.312-.076.089-.113.222-.151.356l-.113.4c-.038.133-.038.311-.038.445 0 .133 0 .222.038.356.037.133.037.222.113.356.038.089.113.222.15.31.076.09.114.179.19.268.075.089.15.178.264.222.075.09.188.134.264.178.113.045.226.134.302.178.113.045.226.09.302.134.037 0 .113.044.15.089.038.044.114.044.151.089.038.044.076.088.114.088l.113.134c.037.044.037.089.075.178 0 .044.038.133.038.222v.223a.363.363 0 01-.076.178l-.113.133a.517.517 0 01-.15.134c-.038.044-.114.044-.152.089-.037 0-.113.044-.188.044h-.491c-.075 0-.15-.044-.189-.044-.075 0-.15-.045-.226-.09-.075-.044-.15-.044-.226-.088-.038 0-.076-.045-.113-.045-.038 0-.076-.044-.114-.044l-.226-.134-.038.312-.075.8v.134l.113.044c.15-.044.226 0 .34.045a.621.621 0 00.264.089c.075.044.188.044.301.089a.713.713 0 00.302.044h.076v.89h.905v-.934h.038c.113-.045.227-.09.34-.178.113-.045.188-.134.302-.223.075-.089.15-.178.226-.311.075-.09.113-.223.189-.356l.113-.4c.038-.134.038-.267.038-.445 0-.134 0-.223-.038-.356z"></path>
    <path d="M35.978 8.15c-.038-.134-.038-.222-.113-.356-.038-.089-.076-.222-.151-.311-.076-.09-.113-.178-.189-.267-.075-.09-.15-.178-.264-.223-.076-.089-.189-.133-.264-.178-.113-.044-.189-.133-.302-.178a2.371 2.371 0 01-.302-.133c-.038 0-.113-.044-.15-.089-.038-.044-.114-.044-.152-.089-.038-.044-.113-.044-.15-.089l-.114-.133c-.038-.045-.075-.09-.075-.178-.038-.045-.038-.134-.038-.178v-.223c0-.044.038-.133.038-.178.037-.044.037-.133.075-.177l.113-.134a.267.267 0 01.189-.089c.076-.044.113-.044.189-.044h.226a.3.3 0 01.189.044c.075 0 .15.045.188.045.038 0 .114.044.151.044.076 0 .113.045.151.045l.189.089.038-.267.075-.712v-.178l-.15-.045c-.039 0-.114-.044-.152-.044-.038 0-.075-.045-.15-.045-.038 0-.114-.044-.19-.044-.075 0-.113-.044-.188-.044h-.038v-.846h-.905v.89h-.038a1.237 1.237 0 00-.34.178c-.113.044-.188.133-.264.222-.075.09-.15.178-.226.312-.076.089-.113.222-.151.356l-.113.4c-.038.133-.038.311-.038.445 0 .133 0 .222.038.356.037.133.037.222.113.356.038.089.113.222.15.31.076.09.114.179.19.268.075.089.15.178.264.222.075.09.188.134.264.178.113.045.226.134.302.178.113.045.226.09.302.134.037 0 .113.044.15.089.038.044.114.044.151.089.038.044.076.088.114.088l.113.134c.037.044.037.089.075.178 0 .044.038.133.038.222v.223a.363.363 0 01-.076.178l-.113.133a.517.517 0 01-.15.134c-.038.044-.114.044-.152.089-.037 0-.113.044-.188.044h-.491c-.075 0-.15-.044-.189-.044-.075 0-.15-.045-.226-.09-.075-.044-.15-.044-.226-.088-.038 0-.076-.045-.113-.045-.038 0-.076-.044-.114-.044l-.226-.134-.038.312-.075.8v.134l.113.044c.15-.044.226 0 .34.045a.621.621 0 00.264.089c.075.044.188.044.301.089a.713.713 0 00.302.044h.076v.89h.905v-.934h.038c.113-.045.227-.09.34-.178.113-.045.188-.134.302-.223.075-.089.15-.178.226-.311.075-.09.113-.223.189-.356l.113-.4c.038-.134.038-.267.038-.445 0-.134 0-.223-.038-.356z" mask="url(#a)"></path>
    <path d="M30.701 14.288l-.002.002-6.087 5.715-7.855-3.855h-.001a.577.577 0 00-.62.096l-8.452 7.117c-.283.238-.362.709-.162 1.04.122.24.328.338.534.338.127 0 .25-.05.37-.144l.002-.001 8.163-6.874 7.894 3.856h.001c.105.05.229.06.345.043a.62.62 0 00.313-.14h.001l6.376-5.96a.762.762 0 00.243-.511.95.95 0 00-.12-.576.628.628 0 00-.943-.146z"></path>
    <path d="M40.43 38.8h-2.742V18.256c0-.42-.279-.762-.654-.762h-5.546c-.375 0-.654.342-.654.762V38.8h-1.937V25.372c0-.42-.28-.762-.654-.762h-5.585c-.374 0-.653.342-.653.762v13.429h-1.938V24.304c0-.42-.279-.761-.654-.761h-5.546c-.375 0-.654.342-.654.762V38.8h-1.938V28.486c0-.42-.279-.762-.653-.762H5.037c-.374 0-.653.342-.653.762v10.315h-2.78c-.375 0-.654.342-.654.761 0 .42.28.762.654.762h38.789c.374 0 .652-.34.653-.76.04-.422-.242-.763-.616-.763zm-30.5 0H5.691v-9.552h4.24V38.8zm8.83 0h-4.24V25.067h4.24v13.735zm8.791 0h-4.239V26.135h4.24V38.8zm8.83 0h-4.24V19.018h4.24V38.8z"></path>
  </symbol>
  <symbol xmlns="http://www.w3.org/2000/svg" viewBox="0 0 40 40" id="docs">
    <path d="M9.375 20.625h1.875v1.25H9.375v-1.25zm4.375 3.125h1.875V25H13.75v-1.25zm-4.375 0H12.5V25H9.375v-1.25zm-5 0h3.75V25h-3.75v-1.25zm3.75 3.125h7.5v1.25h-7.5v-1.25zm-3.75 0h2.5v1.25h-2.5v-1.25zm7.5 3.125h3.75v1.25h-3.75V30zm-7.5 0h6.25v1.25h-6.25V30zm3.75 3.125h3.75v1.25h-3.75v-1.25zm-3.75 0h2.5v1.25h-2.5v-1.25z"></path>
    <path d="M37.5 18.75a.625.625 0 00-.625-.625h-3.75a.625.625 0 00-.625.625v3.125h-3.125a.625.625 0 00-.625.625v3.125h-3.125a.625.625 0 00-.625.625v3.125h-3.125a.625.625 0 00-.625.625v3.75h-4.483a1.876 1.876 0 100 1.25h.733v1.875a.625.625 0 01-.625.625H3.125a.626.626 0 01-.625-.625V22.5h3.125A1.877 1.877 0 007.5 20.625V17.5h9.375a.626.626 0 01.625.625v.625h1.25v-.625a1.877 1.877 0 00-1.875-1.875H7.393a1.862 1.862 0 00-1.326.55l-4.268 4.267a1.863 1.863 0 00-.549 1.326v14.482a1.877 1.877 0 001.875 1.875h13.75a1.877 1.877 0 001.875-1.875V35h20v-1.25H37.5v-15zm-31.25-.366v2.241a.626.626 0 01-.625.625H3.384l2.866-2.866zM15 35a.625.625 0 110-1.25.625.625 0 010 1.25zm7.5-4.375H25v3.125h-2.5v-3.125zm3.75-3.75h2.5v6.875h-2.5v-6.875zm3.75-3.75h2.5V33.75H30V23.125zm3.75 10.625V19.375h2.5V33.75h-2.5zM3.125 16.876a1.875 1.875 0 001.692-2.683l1.875-1.875a1.874 1.874 0 002.575-1.067h2.716a1.875 1.875 0 003.616-.315l3.53-3.026a1.875 1.875 0 10-.85-.917l-2.99 2.563a1.873 1.873 0 00-3.306.445H9.267a1.875 1.875 0 10-3.459 1.433l-1.875 1.875a1.875 1.875 0 10-.808 3.567zM20 5.626a.625.625 0 110 1.25.625.625 0 010-1.25zM13.75 10a.625.625 0 110 1.25.625.625 0 010-1.25zM7.5 10a.625.625 0 110 1.25.625.625 0 010-1.25zm-4.375 4.375a.625.625 0 110 1.25.625.625 0 010-1.25z"></path>
    <path d="M25.747 15.871l-4.13 4.131h-5.475a1.875 1.875 0 100 1.25H17.5v11.25h1.25v-11.25h3.125a.625.625 0 00.442-.183l4.51-4.51a8.147 8.147 0 10-1.08-.688zm-11.372 5.381a.625.625 0 110-1.25.625.625 0 010 1.25zm21.263-7.175l-3.621-4.075h5.454a6.852 6.852 0 01-1.833 4.074zm1.833-5.325H31.25V2.531a6.887 6.887 0 016.221 6.221zM30 2.531v6.846c0 .153.056.301.158.415l4.547 5.116A6.875 6.875 0 1130 2.53z"></path>
  </symbol>
  <symbol xmlns="http://www.w3.org/2000/svg" viewBox="0 0 40 41" id="graf">
    <path d="M39.982 2.362a1.99 1.99 0 00-1.999-1.92H2a1.988 1.988 0 00-2 1.979v35.635a1.99 1.99 0 002 1.98h35.983c1.104 0 2-.887 2-1.98 0-43.931.04-34.316 0-35.695zm-1.332 0l-3.106 10.413-4.225-1.57V1.76h6.664a.664.664 0 01.667.607v-.006zm-8.663 9.18l-4.911 13.37-4.419-4.924V1.761h9.33v9.78zm-10.662 6.816c-3.998-4.923-4.092-5.075-4.178-5.167a.67.67 0 00-.487-.211h-2.665a.663.663 0 00-.667.66c0 .364.299.66.667.66h1.552l-3.551 6.599V1.76h9.329v16.597zm-9.33 5.345l4.778-8.869 4.552 5.636v18.247h-9.33V23.703zm10.662-1.729c4.485 4.996 4.185 4.7 4.378 4.791.194.093.107.073 2.953.073a.663.663 0 00.666-.66.663.663 0 00-.666-.66h-1.713l3.712-10.11v23.309h-9.33V21.975zM2 1.761h6.664V12.98H7.33a.663.663 0 00-.666.66c0 .364.298.66.666.66h1.333v9.054L4.87 29.616l-3.538 1.498V2.421c0-.364.298-.66.666-.66zm-.666 36.296v-5.504l4.258-1.808c.28-.119.086.099 3.072-4.824v12.796H1.999a.663.663 0 01-.666-.66zm36.65.66H31.32V26.838h1.333a.663.663 0 00.666-.66.663.663 0 00-.666-.66H31.32V12.61l4.432 1.65a.672.672 0 00.55-.016.661.661 0 00.35-.42l1.998-6.823v31.056c0 .364-.298.66-.666.66z"></path>
    <path d="M25.795 28.352a.67.67 0 00-.946 0l-2 1.98a.659.659 0 00.3 1.108.673.673 0 00.647-.172l.86-.858v4.35c0 .364.298.66.666.66a.663.663 0 00.666-.66v-4.35l.86.858a.674.674 0 00.946 0 .658.658 0 000-.937l-1.999-1.98zM14.187 11.466a.67.67 0 00.946 0l2-1.98a.658.658 0 00-.3-1.108.674.674 0 00-.647.171l-.86.858V5.058a.663.663 0 00-.666-.66.663.663 0 00-.666.66v4.35l-.86-.859a.674.674 0 00-.946 0 .658.658 0 000 .937l1.999 1.98zm22.463 14.05h-1.332a.663.663 0 00-.667.658c0 .364.299.66.667.66h1.332a.663.663 0 00.667-.66.663.663 0 00-.667-.658zM3.332 14.298h1.333a.663.663 0 00.666-.659.663.663 0 00-.666-.659H3.332a.663.663 0 00-.666.66c0 .363.298.658.666.658z"></path>
  </symbol>
</svg>