<?xml version="1.0" standalone="no"?>
<!DOCTYPE svg PUBLIC "-//W3C//DTD SVG 20010904//EN"
 "http://www.w3.org/TR/2001/REC-SVG-20010904/DTD/svg10.dtd">
<svg version="1.0" xmlns="http://www.w3.org/2000/svg"
 width="700.000000pt" height="700.000000pt" viewBox="0 0 700.000000 700.000000"
 preserveAspectRatio="xMidYMid meet">
<metadata>
Created by potrace 1.14, written by Peter Selinger 2001-2017
</metadata>
<g transform="translate(0.000000,700.000000) scale(0.100000,-0.100000)"
fill="#000000" stroke="none">
<path d="M3443 6993 c15 -2 39 -2 55 0 15 2 2 4 -28 4 -30 0 -43 -2 -27 -4z"/>
<path d="M3105 6974 c-1426 -162 -2615 -1188 -2984 -2576 -120 -454 -148 -975
-75 -1438 48 -303 139 -612 264 -892 51 -115 156 -314 169 -322 4 -3 43 31 86
74 l79 79 -52 108 c-218 460 -332 972 -332 1493 0 1760 1297 3237 3050 3474
l105 14 -95 0 c-52 0 -149 -6 -215 -14z"/>
<path d="M3225 6210 c-853 -95 -1590 -558 -2044 -1285 -188 -301 -316 -655
-378 -1045 -28 -176 -25 -605 5 -789 158 -968 784 -1754 1687 -2118 344 -139
705 -201 1093 -190 290 8 510 47 772 134 973 323 1681 1170 1836 2195 22 143
30 496 15 644 -66 641 -343 1227 -794 1675 -412 411 -926 668 -1522 764 -117
19 -546 28 -670 15z m-27 -485 c63 -27 110 -65 144 -118 l33 -51 5 -166 5
-165 172 -3 171 -2 4 152 c3 144 5 156 31 210 54 109 152 165 276 156 100 -7
175 -56 229 -147 27 -46 27 -47 30 -266 l3 -220 39 -23 c136 -78 289 -243 358
-386 160 -330 144 -653 -50 -979 l-22 -37 24 -17 c175 -122 329 -334 393 -538
72 -232 61 -488 -31 -710 -114 -276 -358 -499 -639 -587 l-72 -22 -3 -171 c-3
-155 -5 -174 -26 -215 -32 -61 -68 -97 -127 -128 -42 -22 -63 -27 -130 -27
-71 0 -86 3 -135 31 -115 65 -150 147 -150 351 l0 133 -172 -2 -173 -3 -5
-160 c-6 -184 -15 -213 -95 -283 -113 -99 -281 -94 -382 10 -72 75 -77 93 -83
273 l-5 160 -210 5 c-193 5 -213 7 -252 28 -215 114 -207 416 12 513 34 15 77
24 133 27 l82 5 0 1147 0 1147 -82 5 c-187 10 -302 121 -301 288 1 106 52 194
144 245 l54 30 210 5 210 5 5 160 c4 139 8 165 27 200 29 54 88 109 143 134
55 25 155 28 208 6z"/>
<path d="M3150 4250 l0 -401 393 3 392 3 67 32 c307 145 313 571 10 720 l-76
38 -393 3 -393 3 0 -401z"/>
<path d="M3150 2815 l0 -466 508 3 c504 3 507 3 564 26 119 48 224 154 269
269 31 81 37 205 14 289 -32 117 -127 234 -234 288 -106 54 -126 56 -643 56
l-478 0 0 -465z"/>
<path d="M990 1194 l-65 -65 115 -112 c63 -62 155 -145 203 -186 l88 -74 57
56 56 56 -125 123 c-68 68 -153 156 -188 196 -35 39 -67 72 -70 72 -4 0 -36
-30 -71 -66z"/>
<path d="M2261 276 l-33 -34 54 -20 c314 -117 703 -198 1003 -207 l130 -5
-100 15 c-334 48 -687 145 -934 256 -35 16 -69 29 -75 29 -7 0 -27 -15 -45
-34z"/>
<path d="M3453 3 c15 -2 37 -2 50 0 12 2 0 4 -28 4 -27 0 -38 -2 -22 -4z"/>
</g>
</svg>
